<?xml version="1.0" standalone="no"?>
<!DOCTYPE svg PUBLIC "-//W3C//DTD SVG 20010904//EN"
 "http://www.w3.org/TR/2001/REC-SVG-20010904/DTD/svg10.dtd">
<svg version="1.0" xmlns="http://www.w3.org/2000/svg"
 width="128.000000pt" height="128.000000pt" viewBox="0 0 128.000000 128.000000"
 preserveAspectRatio="xMidYMid meet">
<metadata>
Created by potrace 1.14, written by Peter Selinger 2001-2017
</metadata>
<g transform="translate(0.000000,128.000000) scale(0.100000,-0.100000)"
fill="#000000" stroke="none">
<path d="M540 1060 c0 -88 0 -90 24 -90 13 0 26 -7 30 -15 4 -12 -5 -15 -49
-15 -37 0 -55 -4 -56 -12 -1 -7 -2 -18 -3 -25 0 -6 -17 -22 -36 -35 -20 -13
-46 -44 -60 -73 -21 -42 -25 -62 -22 -123 2 -68 1 -75 -23 -94 -23 -18 -35
-57 -17 -59 4 0 15 -2 24 -4 9 -2 19 4 22 12 5 13 9 13 22 2 21 -17 64 -18 80
-2 20 20 22 20 37 -2 10 -15 13 -57 11 -160 -1 -77 -2 -145 -3 -151 0 -6 -18
-16 -40 -22 -40 -13 -91 -47 -91 -63 0 -5 84 -9 200 -9 110 0 200 2 200 6 0 3
-9 25 -20 49 -17 37 -20 65 -19 194 0 140 1 152 20 161 17 10 20 20 17 68 l-3
57 -32 0 c-28 -1 -33 3 -33 21 0 18 6 23 33 26 31 3 32 4 37 58 l5 55 22 -34
c17 -27 19 -37 10 -52 -9 -14 -9 -21 1 -31 20 -20 15 -102 -8 -123 -19 -18
-28 -54 -12 -56 4 0 15 -2 25 -4 10 -2 21 3 24 11 4 12 8 12 20 2 13 -10 32
-13 74 -9 21 2 4 46 -26 66 -29 19 -30 23 -30 95 0 89 -27 155 -75 183 -23 14
-30 25 -30 48 0 29 -1 29 -55 29 -44 0 -53 3 -49 15 4 8 17 15 30 15 24 0 24
2 24 90 l0 90 -100 0 -100 0 0 -90z m130 0 l0 -70 -55 0 -55 0 0 70 0 70 55 0
55 0 0 -70z m50 0 c0 -56 -3 -70 -15 -70 -12 0 -15 14 -15 70 0 56 3 70 15 70
12 0 15 -14 15 -70z m-67 -107 c-7 -2 -19 -2 -25 0 -7 3 -2 5 12 5 14 0 19 -2
13 -5z m42 -130 c1 -51 -1 -94 -4 -94 -14 -4 -167 -5 -176 -2 -8 3 -11 109 -6
179 1 8 31 11 93 10 l93 -1 0 -92z m75 81 c0 -6 -10 -18 -21 -26 -16 -10 -20
-20 -15 -36 4 -12 14 -22 22 -22 20 0 20 -88 -1 -96 -37 -15 -42 8 -36 173 1
18 6 22 26 21 14 -1 25 -8 25 -14z m-302 -70 c-13 -7 -33 -29 -43 -48 -24 -44
-37 -47 -22 -5 14 36 64 82 79 73 6 -4 1 -12 -14 -20z m350 6 c23 -22 56 -79
49 -86 -2 -2 -15 13 -28 34 -15 23 -36 41 -56 47 -18 5 -33 13 -33 17 0 16 47
7 68 -12z m-331 -82 l-2 -53 38 -3 c31 -3 37 -7 37 -26 0 -20 -5 -23 -31 -21
-35 3 -47 -17 -44 -71 l3 -33 -32 26 c-29 22 -32 30 -29 67 2 22 5 59 6 81 3
47 22 85 42 85 10 0 13 -14 12 -52z m-72 -38 c3 -6 -1 -13 -10 -16 -19 -8 -30
0 -20 15 8 14 22 14 30 1z m465 -5 c0 -8 -6 -15 -14 -15 -17 0 -28 14 -19 24
12 12 33 6 33 -9z m-280 -35 c0 -5 -2 -10 -4 -10 -3 0 -8 5 -11 10 -3 6 -1 10
4 10 6 0 11 -4 11 -10z m96 3 c-10 -10 -86 -11 -86 -1 0 4 21 8 47 8 25 0 43
-3 39 -7z m-292 -43 c1 -17 -1 -33 -6 -36 -4 -3 -8 14 -8 37 0 48 11 47 14 -1z
m468 0 c-2 -22 -6 -40 -8 -40 -2 0 -4 18 -4 40 0 22 3 40 8 40 4 0 6 -18 4
-40z m-192 15 c0 -1 -12 -2 -26 -2 -17 0 -22 2 -13 7 10 7 39 3 39 -5z m-63
-1 c-3 -3 -12 -4 -19 -1 -8 3 -5 6 6 6 11 1 17 -2 13 -5z m78 -66 l-2 -33 -91
0 c-51 0 -92 3 -93 8 -1 4 -1 19 -2 35 l-1 27 84 5 c47 3 90 2 96 -2 6 -4 10
-22 9 -40z m73 8 c-2 -28 -8 -40 -21 -42 -18 -2 -34 20 -31 46 1 8 2 20 3 25
0 6 12 10 26 10 24 0 26 -3 23 -39z m-343 -46 c9 -14 -9 -12 -23 2 -10 10 -17
10 -32 0 -30 -19 -38 -14 -12 8 24 20 51 15 67 -10z m481 -7 c-2 -3 -13 1 -25
9 -16 10 -23 10 -33 0 -15 -15 -32 -16 -23 -1 14 21 49 27 68 11 9 -8 15 -17
13 -19z m-332 -15 c-3 -4 -9 -8 -15 -8 -5 0 -9 4 -9 8 0 5 7 9 15 9 8 0 12 -4
9 -9z m102 -10 c4 -6 6 -32 5 -59 -2 -64 -2 -70 -1 -162 0 -43 -2 -82 -5 -87
-3 -4 -19 -13 -35 -19 -28 -9 -32 -8 -40 14 -15 41 -10 297 6 316 15 17 59 15
70 -3z m54 8 c-7 -7 -13 -7 -20 0 -6 6 -3 10 10 10 13 0 16 -4 10 -10z m-160
-61 c0 -19 -4 -35 -10 -35 -5 0 -10 16 -10 35 0 19 5 35 10 35 6 0 10 -16 10
-35z m157 -1 c1 -23 -2 -34 -10 -31 -15 5 -18 67 -3 67 6 0 12 -16 13 -36z
m-157 -84 c-9 -6 -19 -5 -25 1 -6 6 -5 13 5 19 9 6 19 5 25 -1 6 -6 5 -13 -5
-19z m158 -1 c-16 -10 -33 5 -23 21 5 8 11 8 21 -1 12 -10 12 -14 2 -20z
m-158 -84 c0 -71 -17 -71 -22 0 -2 39 1 55 10 55 8 0 12 -18 12 -55z m156 3
c-1 -30 -6 -53 -13 -55 -8 -3 -11 13 -10 51 1 33 6 56 13 56 7 0 11 -20 10
-52z m-148 -95 c2 -8 -5 -13 -17 -13 -12 0 -21 6 -21 16 0 18 31 15 38 -3z
m152 2 c0 -8 -7 -15 -15 -15 -8 0 -15 7 -15 15 0 8 7 15 15 15 8 0 15 -7 15
-15z m-189 -36 c33 -17 11 -29 -54 -28 l-62 1 40 19 c47 22 50 22 76 8z m153
4 c4 -4 19 -7 33 -8 14 0 28 -6 30 -12 4 -10 -18 -13 -88 -13 -51 0 -90 2 -87
5 6 6 80 33 94 34 6 1 14 -2 18 -6z"/>
<path d="M575 1091 c-6 -11 9 -23 19 -14 9 9 7 23 -3 23 -6 0 -12 -4 -16 -9z"/>
<path d="M630 1084 c0 -8 5 -12 10 -9 6 3 10 10 10 16 0 5 -4 9 -10 9 -5 0
-10 -7 -10 -16z"/>
</g>
</svg>
